<mxfile host="app.diagrams.net" modified="2024-03-12T16:33:07.121Z" agent="Mozilla/5.0 (Windows NT 10.0; Win64; x64) AppleWebKit/537.36 (KHTML, like Gecko) Chrome/122.0.0.0 Safari/537.36" etag="go09jxt7GQQPuZK9t0i-" version="24.0.5" type="device">
  <diagram name="Страница — 1" id="BatrREo1cD1gk5NpuK9s">
    <mxGraphModel dx="1221" dy="647" grid="1" gridSize="10" guides="1" tooltips="1" connect="1" arrows="1" fold="1" page="1" pageScale="1" pageWidth="827" pageHeight="1169" math="0" shadow="0">
      <root>
        <mxCell id="0" />
        <mxCell id="1" parent="0" />
        <mxCell id="6g7TJVJV5ieNF888EQDm-1" value="&amp;lt;&amp;lt;VPS&amp;gt;&amp;gt;" style="verticalAlign=top;align=left;spacingTop=8;spacingLeft=2;spacingRight=12;shape=cube;size=10;direction=south;fontStyle=4;html=1;whiteSpace=wrap;" vertex="1" parent="1">
          <mxGeometry x="30" y="50" width="510" height="310" as="geometry" />
        </mxCell>
        <mxCell id="6g7TJVJV5ieNF888EQDm-7" value="&amp;lt;&amp;lt;Mobile divice&amp;gt;&amp;gt;" style="verticalAlign=top;align=left;spacingTop=8;spacingLeft=2;spacingRight=12;shape=cube;size=10;direction=south;fontStyle=4;html=1;whiteSpace=wrap;" vertex="1" parent="1">
          <mxGeometry x="610" y="112.5" width="320" height="180" as="geometry" />
        </mxCell>
        <mxCell id="6g7TJVJV5ieNF888EQDm-8" value="&amp;lt;&amp;lt;Dart Runtime&amp;gt;&amp;gt;" style="verticalAlign=top;align=left;spacingTop=8;spacingLeft=2;spacingRight=12;shape=cube;size=10;direction=south;fontStyle=4;html=1;whiteSpace=wrap;" vertex="1" parent="1">
          <mxGeometry x="690" y="145" width="180" height="120" as="geometry" />
        </mxCell>
        <mxCell id="6g7TJVJV5ieNF888EQDm-9" value="&amp;lt;&amp;lt;Docker container&amp;gt;&amp;gt;" style="verticalAlign=top;align=left;spacingTop=8;spacingLeft=2;spacingRight=12;shape=cube;size=10;direction=south;fontStyle=4;html=1;whiteSpace=wrap;" vertex="1" parent="1">
          <mxGeometry x="37.5" y="135" width="205" height="140" as="geometry" />
        </mxCell>
        <mxCell id="6g7TJVJV5ieNF888EQDm-10" value="PostgreSQL" style="shape=module;align=left;spacingLeft=20;align=center;verticalAlign=top;whiteSpace=wrap;html=1;" vertex="1" parent="1">
          <mxGeometry x="90" y="186" width="100" height="50" as="geometry" />
        </mxCell>
        <mxCell id="6g7TJVJV5ieNF888EQDm-11" value="Flutter Framework" style="shape=module;align=left;spacingLeft=20;align=center;verticalAlign=top;whiteSpace=wrap;html=1;" vertex="1" parent="1">
          <mxGeometry x="730" y="195" width="100" height="50" as="geometry" />
        </mxCell>
        <mxCell id="6g7TJVJV5ieNF888EQDm-12" value="&amp;lt;&amp;lt;Docker container&amp;gt;&amp;gt;" style="verticalAlign=top;align=left;spacingTop=8;spacingLeft=2;spacingRight=12;shape=cube;size=10;direction=south;fontStyle=4;html=1;whiteSpace=wrap;" vertex="1" parent="1">
          <mxGeometry x="270" y="117.5" width="240" height="175" as="geometry" />
        </mxCell>
        <mxCell id="6g7TJVJV5ieNF888EQDm-29" style="edgeStyle=orthogonalEdgeStyle;rounded=0;orthogonalLoop=1;jettySize=auto;html=1;exitX=0;exitY=0;exitDx=65;exitDy=180;exitPerimeter=0;endArrow=none;endFill=0;" edge="1" parent="1">
          <mxGeometry relative="1" as="geometry">
            <mxPoint x="300" y="211" as="sourcePoint" />
            <mxPoint x="190" y="211" as="targetPoint" />
          </mxGeometry>
        </mxCell>
        <mxCell id="6g7TJVJV5ieNF888EQDm-13" value="&amp;lt;&amp;lt;JVM&amp;gt;&amp;gt;" style="verticalAlign=top;align=left;spacingTop=8;spacingLeft=2;spacingRight=12;shape=cube;size=10;direction=south;fontStyle=4;html=1;whiteSpace=wrap;" vertex="1" parent="1">
          <mxGeometry x="300" y="155" width="180" height="120" as="geometry" />
        </mxCell>
        <mxCell id="6g7TJVJV5ieNF888EQDm-14" value="Spring Boot" style="shape=module;align=left;spacingLeft=20;align=center;verticalAlign=top;whiteSpace=wrap;html=1;" vertex="1" parent="1">
          <mxGeometry x="340" y="190" width="100" height="50" as="geometry" />
        </mxCell>
        <mxCell id="6g7TJVJV5ieNF888EQDm-28" style="edgeStyle=orthogonalEdgeStyle;rounded=0;orthogonalLoop=1;jettySize=auto;html=1;exitX=0;exitY=0;exitDx=55;exitDy=0;exitPerimeter=0;entryX=0;entryY=0;entryDx=0;entryDy=15;entryPerimeter=0;endArrow=none;endFill=0;" edge="1" parent="1" source="6g7TJVJV5ieNF888EQDm-13" target="6g7TJVJV5ieNF888EQDm-11">
          <mxGeometry relative="1" as="geometry" />
        </mxCell>
      </root>
    </mxGraphModel>
  </diagram>
</mxfile>
